<mxfile host="app.diagrams.net" agent="Mozilla/5.0 (Windows NT 10.0; Win64; x64) AppleWebKit/537.36 (KHTML, like Gecko) Chrome/136.0.0.0 Safari/537.36" version="27.0.3" pages="2">
  <diagram id="C5RBs43oDa-KdzZeNtuy" name="Page-1">
    <mxGraphModel dx="645" dy="744" grid="0" gridSize="10" guides="1" tooltips="1" connect="1" arrows="1" fold="1" page="1" pageScale="1" pageWidth="827" pageHeight="1169" background="light-dark(#FFFFFF,#FFFFFF)" math="0" shadow="0">
      <root>
        <mxCell id="WIyWlLk6GJQsqaUBKTNV-0" />
        <mxCell id="WIyWlLk6GJQsqaUBKTNV-1" parent="WIyWlLk6GJQsqaUBKTNV-0" />
        <mxCell id="pfUC0eX91SlrbgGsez9X-9" value="telemetry" style="rounded=0;orthogonalLoop=1;jettySize=auto;html=1;strokeColor=#0B4D6A;dashed=1;" edge="1" parent="WIyWlLk6GJQsqaUBKTNV-1" source="GH0HUJCiaZ4uxkdtfnTx-6" target="GH0HUJCiaZ4uxkdtfnTx-13">
          <mxGeometry relative="1" as="geometry" />
        </mxCell>
        <mxCell id="GH0HUJCiaZ4uxkdtfnTx-6" value="Windows10&lt;div&gt;IP: DHCP&lt;/div&gt;&lt;div&gt;Splunk Universal Forwarder&lt;/div&gt;&lt;div&gt;Sysmon&lt;/div&gt;&lt;div&gt;Atomic Red Team&lt;/div&gt;" style="points=[[0.35,0,0],[0.98,0.51,0],[1,0.71,0],[0.67,1,0],[0,0.795,0],[0,0.65,0]];verticalLabelPosition=bottom;sketch=0;html=1;verticalAlign=top;aspect=fixed;align=center;pointerEvents=1;shape=mxgraph.cisco19.user;fillColor=#09555B;strokeColor=none;labelBackgroundColor=none;fontColor=#EEEEEE;" parent="WIyWlLk6GJQsqaUBKTNV-1" vertex="1">
          <mxGeometry x="370" y="636" width="120" height="120" as="geometry" />
        </mxCell>
        <mxCell id="GH0HUJCiaZ4uxkdtfnTx-41" style="edgeStyle=orthogonalEdgeStyle;rounded=0;orthogonalLoop=1;jettySize=auto;html=1;labelBackgroundColor=none;strokeColor=#0B4D6A;fontColor=default;" parent="WIyWlLk6GJQsqaUBKTNV-1" target="GH0HUJCiaZ4uxkdtfnTx-16" edge="1">
          <mxGeometry relative="1" as="geometry">
            <mxPoint x="660" y="445" as="sourcePoint" />
          </mxGeometry>
        </mxCell>
        <mxCell id="GH0HUJCiaZ4uxkdtfnTx-13" value="Splunk Server&lt;div&gt;IP: 192.168.10.10&lt;/div&gt;" style="image;aspect=fixed;perimeter=ellipsePerimeter;html=1;align=center;shadow=0;dashed=0;spacingTop=3;image=img/lib/active_directory/windows_server.svg;labelBackgroundColor=none;fillColor=#09555B;strokeColor=#BAC8D3;fontColor=#EEEEEE;" parent="WIyWlLk6GJQsqaUBKTNV-1" vertex="1">
          <mxGeometry x="63" y="146" width="119" height="138.83" as="geometry" />
        </mxCell>
        <mxCell id="GH0HUJCiaZ4uxkdtfnTx-14" value="Active directory&lt;div&gt;IP: 192.18168.10.7&lt;/div&gt;&lt;div&gt;Splunk Universally Forwader&lt;/div&gt;&lt;div&gt;Sysmon&lt;/div&gt;" style="image;aspect=fixed;perimeter=ellipsePerimeter;html=1;align=center;shadow=0;dashed=0;spacingTop=3;image=img/lib/active_directory/windows_server.svg;labelBackgroundColor=none;fillColor=#09555B;strokeColor=#BAC8D3;fontColor=#EEEEEE;" parent="WIyWlLk6GJQsqaUBKTNV-1" vertex="1">
          <mxGeometry x="58" y="393" width="137.14" height="160" as="geometry" />
        </mxCell>
        <mxCell id="GH0HUJCiaZ4uxkdtfnTx-32" style="rounded=0;orthogonalLoop=1;jettySize=auto;html=1;startArrow=none;startFill=0;endArrow=classic;endFill=1;entryX=0.06;entryY=0.387;entryDx=0;entryDy=0;entryPerimeter=0;labelBackgroundColor=none;strokeColor=#0B4D6A;fontColor=default;" parent="WIyWlLk6GJQsqaUBKTNV-1" target="GH0HUJCiaZ4uxkdtfnTx-16" edge="1">
          <mxGeometry relative="1" as="geometry">
            <mxPoint x="380" y="470" as="targetPoint" />
            <mxPoint x="170" y="440" as="sourcePoint" />
          </mxGeometry>
        </mxCell>
        <mxCell id="GH0HUJCiaZ4uxkdtfnTx-35" style="edgeStyle=orthogonalEdgeStyle;rounded=0;orthogonalLoop=1;jettySize=auto;html=1;endArrow=none;startFill=0;labelBackgroundColor=none;strokeColor=#0B4D6A;fontColor=default;" parent="WIyWlLk6GJQsqaUBKTNV-1" source="GH0HUJCiaZ4uxkdtfnTx-16" target="GH0HUJCiaZ4uxkdtfnTx-17" edge="1">
          <mxGeometry relative="1" as="geometry" />
        </mxCell>
        <mxCell id="GH0HUJCiaZ4uxkdtfnTx-16" value="" style="sketch=0;points=[[0.015,0.015,0],[0.985,0.015,0],[0.985,0.985,0],[0.015,0.985,0],[0.25,0,0],[0.5,0,0],[0.75,0,0],[1,0.25,0],[1,0.5,0],[1,0.75,0],[0.75,1,0],[0.5,1,0],[0.25,1,0],[0,0.75,0],[0,0.5,0],[0,0.25,0]];verticalLabelPosition=bottom;html=1;verticalAlign=top;aspect=fixed;align=center;pointerEvents=1;shape=mxgraph.cisco19.rect;prIcon=l2_switch;fillColor=#09555B;strokeColor=#BAC8D3;labelBackgroundColor=none;fontColor=#EEEEEE;" parent="WIyWlLk6GJQsqaUBKTNV-1" vertex="1">
          <mxGeometry x="420" y="420" width="50" height="50" as="geometry" />
        </mxCell>
        <mxCell id="GH0HUJCiaZ4uxkdtfnTx-36" style="rounded=0;orthogonalLoop=1;jettySize=auto;html=1;entryX=0.5;entryY=1;entryDx=0;entryDy=0;labelBackgroundColor=none;strokeColor=#0B4D6A;fontColor=default;" parent="WIyWlLk6GJQsqaUBKTNV-1" source="GH0HUJCiaZ4uxkdtfnTx-17" edge="1" target="GH0HUJCiaZ4uxkdtfnTx-18">
          <mxGeometry relative="1" as="geometry">
            <mxPoint x="443" y="110" as="targetPoint" />
          </mxGeometry>
        </mxCell>
        <mxCell id="GH0HUJCiaZ4uxkdtfnTx-17" value="" style="image;aspect=fixed;html=1;points=[];align=center;fontSize=12;image=img/lib/azure2/networking/Virtual_Router.svg;labelBackgroundColor=none;fillColor=#09555B;strokeColor=#BAC8D3;fontColor=#EEEEEE;" parent="WIyWlLk6GJQsqaUBKTNV-1" vertex="1">
          <mxGeometry x="420" y="269" width="50" height="50" as="geometry" />
        </mxCell>
        <mxCell id="GH0HUJCiaZ4uxkdtfnTx-18" value="Internet" style="image;aspect=fixed;perimeter=ellipsePerimeter;html=1;align=center;shadow=0;dashed=0;spacingTop=3;image=img/lib/active_directory/internet_cloud.svg;labelBackgroundColor=none;fillColor=#09555B;strokeColor=#BAC8D3;fontColor=#EEEEEE;" parent="WIyWlLk6GJQsqaUBKTNV-1" vertex="1">
          <mxGeometry x="381.66" y="91" width="126.67" height="76" as="geometry" />
        </mxCell>
        <mxCell id="GH0HUJCiaZ4uxkdtfnTx-25" style="rounded=0;orthogonalLoop=1;jettySize=auto;html=1;entryX=0.38;entryY=1.027;entryDx=0;entryDy=0;entryPerimeter=0;exitX=0.596;exitY=0.484;exitDx=0;exitDy=0;exitPerimeter=0;labelBackgroundColor=none;strokeColor=#0B4D6A;fontColor=default;" parent="WIyWlLk6GJQsqaUBKTNV-1" source="GH0HUJCiaZ4uxkdtfnTx-6" target="GH0HUJCiaZ4uxkdtfnTx-16" edge="1">
          <mxGeometry relative="1" as="geometry">
            <mxPoint x="510" y="530" as="sourcePoint" />
          </mxGeometry>
        </mxCell>
        <mxCell id="GH0HUJCiaZ4uxkdtfnTx-33" value="Domain: MyDFIR&lt;div&gt;Network: 192.168.10.0/24&lt;/div&gt;&lt;div&gt;Splunk Server: 192.168.10.10&lt;/div&gt;&lt;div&gt;Active Directory: 192.168.10.7&lt;/div&gt;&lt;div&gt;Attacker: 192.168.10.250&lt;/div&gt;&lt;div&gt;&lt;br&gt;&lt;/div&gt;" style="text;html=1;align=center;verticalAlign=middle;resizable=0;points=[];autosize=1;strokeColor=light-dark(#000000,#101010);fillColor=none;labelBackgroundColor=none;fontColor=#EEEEEE;" parent="WIyWlLk6GJQsqaUBKTNV-1" vertex="1">
          <mxGeometry x="587" y="107" width="180" height="100" as="geometry" />
        </mxCell>
        <mxCell id="GH0HUJCiaZ4uxkdtfnTx-43" value="Kali Linux&amp;nbsp;&lt;div&gt;IP:192.168.10.250&lt;/div&gt;" style="points=[[0.35,0,0],[0.98,0.51,0],[1,0.71,0],[0.67,1,0],[0,0.795,0],[0,0.65,0]];verticalLabelPosition=bottom;sketch=0;html=1;verticalAlign=top;aspect=fixed;align=center;pointerEvents=1;shape=mxgraph.cisco19.user;fillColor=light-dark(#A20025,#990000);strokeColor=#6F0000;fontColor=#ffffff;labelBackgroundColor=none;" parent="WIyWlLk6GJQsqaUBKTNV-1" vertex="1">
          <mxGeometry x="640" y="390" width="120" height="120" as="geometry" />
        </mxCell>
        <mxCell id="pfUC0eX91SlrbgGsez9X-6" style="edgeStyle=orthogonalEdgeStyle;rounded=0;orthogonalLoop=1;jettySize=auto;html=1;strokeColor=#0B4D6A;" edge="1" parent="WIyWlLk6GJQsqaUBKTNV-1" source="GH0HUJCiaZ4uxkdtfnTx-14" target="GH0HUJCiaZ4uxkdtfnTx-14">
          <mxGeometry relative="1" as="geometry" />
        </mxCell>
        <mxCell id="pfUC0eX91SlrbgGsez9X-7" style="edgeStyle=orthogonalEdgeStyle;rounded=0;orthogonalLoop=1;jettySize=auto;html=1;strokeColor=#0B4D6A;" edge="1" parent="WIyWlLk6GJQsqaUBKTNV-1" source="GH0HUJCiaZ4uxkdtfnTx-14" target="GH0HUJCiaZ4uxkdtfnTx-14">
          <mxGeometry relative="1" as="geometry" />
        </mxCell>
        <mxCell id="pfUC0eX91SlrbgGsez9X-8" style="edgeStyle=orthogonalEdgeStyle;rounded=0;orthogonalLoop=1;jettySize=auto;html=1;entryX=0.467;entryY=0.469;entryDx=0;entryDy=0;entryPerimeter=0;strokeColor=#0B4D6A;dashed=1;" edge="1" parent="WIyWlLk6GJQsqaUBKTNV-1" source="GH0HUJCiaZ4uxkdtfnTx-13" target="GH0HUJCiaZ4uxkdtfnTx-14">
          <mxGeometry relative="1" as="geometry" />
        </mxCell>
      </root>
    </mxGraphModel>
  </diagram>
  <diagram id="1TPzW5R7A3P0duvPDRpa" name="Page-2">
    <mxGraphModel dx="1042" dy="622" grid="1" gridSize="10" guides="1" tooltips="1" connect="1" arrows="1" fold="1" page="1" pageScale="1" pageWidth="850" pageHeight="1100" math="0" shadow="0">
      <root>
        <mxCell id="0" />
        <mxCell id="1" parent="0" />
      </root>
    </mxGraphModel>
  </diagram>
</mxfile>
